<svg width="535" height="300" viewBox="0 0 535 300" fill="none" xmlns="http://www.w3.org/2000/svg">
<g clip-path="url(#clip0_2_55)">
<path fill-rule="evenodd" clip-rule="evenodd" d="M246.72 231.93V207H254.62C256.696 206.899 258.733 207.588 260.32 208.93C261.028 209.588 261.584 210.392 261.95 211.287C262.316 212.181 262.483 213.145 262.44 214.11C262.461 215.475 262.082 216.817 261.35 217.97C260.626 219.074 259.578 219.926 258.35 220.41C256.604 220.988 254.767 221.242 252.93 221.16H250.26V231.96L246.72 231.93ZM254 210.16H250.29V218H254.21C255.411 218.087 256.603 217.731 257.56 217C257.974 216.624 258.296 216.158 258.502 215.638C258.709 215.118 258.793 214.558 258.75 214C258.75 211.45 257.16 210.17 254 210.17V210.16ZM272 215.46C273.151 215.422 274.298 215.616 275.372 216.032C276.446 216.448 277.425 217.076 278.25 217.88C279.061 218.669 279.7 219.617 280.127 220.666C280.554 221.714 280.759 222.839 280.73 223.97C280.761 225.084 280.551 226.191 280.114 227.216C279.677 228.242 279.024 229.16 278.2 229.91C276.484 231.501 274.209 232.349 271.87 232.27C270.731 232.3 269.598 232.105 268.536 231.694C267.473 231.284 266.503 230.668 265.68 229.88C264.098 228.296 263.21 226.149 263.21 223.91C263.21 221.671 264.098 219.524 265.68 217.94C266.518 217.134 267.509 216.502 268.594 216.084C269.679 215.665 270.837 215.466 272 215.5V215.46ZM271.84 218.46C271.133 218.429 270.426 218.544 269.765 218.799C269.105 219.054 268.504 219.442 268 219.94C267.503 220.461 267.116 221.077 266.86 221.75C266.604 222.423 266.485 223.14 266.51 223.86C266.475 224.569 266.59 225.277 266.847 225.938C267.103 226.6 267.496 227.2 268 227.7C268.524 228.199 269.142 228.587 269.819 228.841C270.496 229.096 271.218 229.211 271.94 229.18C272.66 229.214 273.379 229.1 274.053 228.845C274.727 228.591 275.342 228.201 275.86 227.7C276.653 226.943 277.196 225.961 277.413 224.887C277.631 223.812 277.514 222.696 277.078 221.69C276.642 220.684 275.908 219.836 274.975 219.26C274.042 218.684 272.955 218.409 271.86 218.47L271.84 218.46ZM304.48 215.58H308L300.77 232.3H299.7L294.86 220.84L290.05 232.3H289L281.73 215.58H285.22L289.51 225.58L293.69 215.58H296.12L300.26 225.58L304.55 215.58H304.48ZM323.6 224H312C312.018 225.415 312.58 226.769 313.57 227.78C314.066 228.269 314.655 228.653 315.303 228.909C315.951 229.165 316.644 229.288 317.34 229.27C319.485 229.266 321.57 228.564 323.28 227.27V230.45C322.354 231.064 321.343 231.539 320.28 231.86C319.153 232.168 317.988 232.312 316.82 232.29C315.257 232.371 313.705 231.977 312.37 231.16C311.243 230.399 310.325 229.368 309.7 228.16C308.996 226.785 308.652 225.254 308.7 223.71C308.604 221.476 309.366 219.29 310.83 217.6C311.521 216.826 312.373 216.213 313.327 215.805C314.281 215.397 315.313 215.204 316.35 215.24C317.338 215.2 318.323 215.385 319.229 215.782C320.135 216.179 320.939 216.777 321.58 217.53C322.947 219.267 323.636 221.442 323.52 223.65V224.05L323.6 224ZM312.12 222.07H320.47C320.45 220.964 320.039 219.902 319.31 219.07C318.942 218.713 318.504 218.436 318.024 218.255C317.544 218.074 317.032 217.994 316.52 218.02C315.465 217.979 314.438 218.356 313.66 219.07C312.856 219.884 312.337 220.936 312.18 222.07H312.12ZM330.59 215.56V219.28L330.77 218.98C332.343 216.453 333.913 215.19 335.48 215.19C336.95 215.301 338.325 215.962 339.33 217.04L337.62 219.9C336.805 218.989 335.677 218.418 334.46 218.3C333.92 218.309 333.39 218.449 332.916 218.709C332.442 218.969 332.038 219.34 331.74 219.79C330.966 220.813 330.56 222.068 330.59 223.35V232H327.34V215.5L330.59 215.56ZM345.51 207H366.36V210.19H357.65V232H354.07V210.16H345.51V207ZM371.65 215.48C372.801 215.444 373.947 215.64 375.021 216.055C376.094 216.471 377.074 217.098 377.9 217.9C378.712 218.691 379.351 219.641 379.777 220.691C380.204 221.741 380.409 222.867 380.38 224C380.411 225.111 380.201 226.216 379.766 227.24C379.332 228.263 378.681 229.181 377.86 229.93C376.14 231.52 373.862 232.368 371.52 232.29C370.382 232.319 369.249 232.123 368.186 231.713C367.124 231.303 366.153 230.687 365.33 229.9C364.546 229.117 363.924 228.187 363.5 227.164C363.075 226.14 362.857 225.043 362.857 223.935C362.857 222.827 363.075 221.73 363.5 220.706C363.924 219.683 364.546 218.753 365.33 217.97C366.17 217.174 367.159 216.552 368.24 216.14C369.321 215.728 370.473 215.534 371.63 215.57L371.65 215.48ZM371.49 218.48C370.783 218.451 370.077 218.568 369.417 218.822C368.756 219.077 368.155 219.464 367.65 219.96C367.154 220.482 366.768 221.097 366.513 221.77C366.259 222.444 366.143 223.161 366.17 223.88C366.136 224.588 366.25 225.295 366.505 225.956C366.759 226.617 367.15 227.218 367.65 227.72C368.183 228.223 368.812 228.615 369.499 228.87C370.186 229.126 370.917 229.242 371.65 229.21C372.37 229.238 373.088 229.121 373.762 228.865C374.436 228.609 375.051 228.22 375.57 227.72C376.36 226.962 376.898 225.981 377.114 224.909C377.33 223.836 377.212 222.723 376.776 221.719C376.341 220.715 375.609 219.869 374.678 219.293C373.747 218.718 372.663 218.441 371.57 218.5L371.49 218.48ZM394.65 207H408.82V210.19H398.24V217.8H408.45V221H398.24V228.79H409.15V231.98H394.65V207ZM426 220V231.87H422.75V222.7C422.864 221.386 422.608 220.066 422.01 218.89C421.715 218.504 421.325 218.2 420.879 218.007C420.432 217.814 419.944 217.74 419.46 217.79C418.804 217.78 418.157 217.95 417.59 218.28C416.855 218.726 416.2 219.29 415.65 219.95V231.82H412.4V215.5H415.65V217.65C416.249 216.925 416.988 216.328 417.823 215.895C418.658 215.462 419.572 215.202 420.51 215.13C421.518 215.122 422.507 215.4 423.363 215.931C424.22 216.462 424.908 217.224 425.35 218.13C425.98 217.26 426.794 216.54 427.734 216.022C428.675 215.503 429.718 215.198 430.79 215.13C431.537 215.111 432.279 215.259 432.962 215.561C433.645 215.864 434.252 216.314 434.74 216.88C435.861 218.423 436.387 220.32 436.22 222.22V231.93H432.97V222.15C433.05 221.036 432.754 219.927 432.13 219C431.843 218.638 431.474 218.35 431.053 218.161C430.631 217.971 430.171 217.885 429.71 217.91C428.965 217.951 428.238 218.16 427.585 218.522C426.932 218.884 426.37 219.389 425.94 220H426ZM440.53 240.34V215.5H446.22C448.678 215.353 451.102 216.126 453.02 217.67C453.845 218.449 454.489 219.398 454.909 220.451C455.329 221.505 455.513 222.638 455.45 223.77C455.494 224.883 455.315 225.993 454.923 227.035C454.532 228.078 453.936 229.031 453.17 229.84C452.419 230.622 451.511 231.238 450.507 231.648C449.503 232.058 448.424 232.253 447.34 232.22C446.146 232.193 444.965 231.959 443.85 231.53V240.34H440.53ZM446.15 218.53H443.85V228.63C444.818 229.13 445.891 229.39 446.98 229.39C447.678 229.412 448.373 229.281 449.016 229.006C449.658 228.731 450.233 228.32 450.7 227.8C451.5 226.852 452.004 225.689 452.148 224.457C452.292 223.225 452.07 221.977 451.51 220.87C451.082 220.098 450.43 219.474 449.64 219.08C448.539 218.652 447.36 218.458 446.18 218.51L446.15 218.53ZM466.92 215.46C468.068 215.422 469.212 215.617 470.283 216.033C471.353 216.449 472.329 217.077 473.15 217.88C473.967 218.665 474.611 219.613 475.039 220.662C475.468 221.71 475.673 222.837 475.64 223.97C475.675 225.084 475.468 226.191 475.033 227.217C474.598 228.243 473.945 229.162 473.12 229.91C471.404 231.501 469.129 232.349 466.79 232.27C465.652 232.3 464.518 232.105 463.456 231.694C462.393 231.284 461.423 230.668 460.6 229.88C459.816 229.096 459.193 228.166 458.769 227.141C458.344 226.117 458.126 225.019 458.126 223.91C458.126 222.801 458.344 221.703 458.769 220.679C459.193 219.654 459.816 218.724 460.6 217.94C461.436 217.141 462.423 216.516 463.503 216.102C464.583 215.689 465.734 215.494 466.89 215.53L466.92 215.46ZM466.76 218.46C466.052 218.426 465.345 218.54 464.684 218.795C464.023 219.049 463.422 219.44 462.92 219.94C462.419 220.459 462.029 221.074 461.773 221.747C461.517 222.421 461.4 223.14 461.43 223.86C461.396 224.569 461.511 225.277 461.767 225.938C462.024 226.6 462.417 227.2 462.92 227.7C463.445 228.197 464.064 228.584 464.74 228.838C465.417 229.092 466.138 229.208 466.86 229.18C467.581 229.211 468.301 229.096 468.976 228.842C469.652 228.587 470.269 228.199 470.79 227.7C471.288 227.19 471.676 226.583 471.932 225.918C472.189 225.253 472.307 224.542 472.28 223.83C472.3 223.106 472.167 222.387 471.889 221.718C471.612 221.049 471.196 220.447 470.67 219.95C470.136 219.448 469.507 219.059 468.82 218.805C468.133 218.551 467.402 218.437 466.67 218.47L466.76 218.46ZM499.4 215.58H502.88L495.57 232.25H494.5L489.64 220.8L484.84 232.25H483.76L476.49 215.53H480L484.28 225.53L488.47 215.53H490.89L495.04 225.53L499.33 215.53L499.4 215.58ZM518.45 224H506.88C506.897 225.417 507.464 226.772 508.46 227.78C508.953 228.27 509.541 228.654 510.187 228.91C510.834 229.166 511.525 229.289 512.22 229.27C514.362 229.266 516.444 228.564 518.15 227.27V230.45C517.226 231.068 516.215 231.543 515.15 231.86C514.027 232.168 512.865 232.312 511.7 232.29C510.136 232.373 508.584 231.979 507.25 231.16C506.117 230.4 505.192 229.369 504.56 228.16C503.861 226.783 503.517 225.254 503.56 223.71C503.471 221.479 504.228 219.296 505.68 217.6C506.374 216.825 507.231 216.212 508.188 215.805C509.145 215.397 510.18 215.204 511.22 215.24C512.207 215.2 513.19 215.385 514.094 215.782C514.999 216.179 515.801 216.777 516.44 217.53C517.811 219.265 518.501 221.442 518.38 223.65V224.05L518.45 224ZM507 222.06H515.28C515.256 220.955 514.845 219.894 514.12 219.06C513.75 218.705 513.312 218.43 512.833 218.249C512.353 218.069 511.842 217.987 511.33 218.01C510.27 217.972 509.237 218.349 508.45 219.06C507.653 219.879 507.135 220.929 506.97 222.06H507ZM525.47 215.55V219.27L525.66 218.97C527.24 216.443 528.813 215.18 530.38 215.18C531.846 215.298 533.215 215.957 534.22 217.03L532.5 219.89C531.693 218.979 530.571 218.408 529.36 218.29C528.818 218.298 528.287 218.438 527.811 218.698C527.335 218.957 526.93 219.329 526.63 219.78C525.857 220.804 525.449 222.057 525.47 223.34V232H522.22V215.5L525.47 215.55Z" fill="#4D4E4B"/>
<path fill-rule="evenodd" clip-rule="evenodd" d="M160.47 223.19L153.6 235.06C140.83 256.14 119.85 279.24 97.22 289.95C94.86 291.07 93.13 291.9 90.77 292.85C88.4718 293.663 86.2186 294.597 84.02 295.65C130.41 286.17 164.77 265.44 193.45 230.78C217.19 202.03 241.72 155.36 238.27 102.57C234.95 52.08 206.27 13.9 163.71 3.20999C118.17 -8.25001 83.8 12.21 59.06 45.05C57.28 47.4 51.78 55.43 51 57.94C84.5 41.17 124.56 33.74 158.33 58.27C187.72 79.63 196.58 122.6 188.92 160.09C184.47 181.85 175.75 198.44 164.78 216.6C163.246 218.723 161.821 220.922 160.51 223.19H160.47Z" fill="#E15A11"/>
<path fill-rule="evenodd" clip-rule="evenodd" d="M43 293.74C39.86 295.98 27.64 292.13 24.48 291.58C30.48 295.89 43.13 299.34 52.22 299.85C66.11 300.64 72.22 298.22 84.02 295.75C86.2294 294.713 88.4926 293.795 90.8 293C93.16 292.05 94.89 291.22 97.25 290.11C119.91 279.37 140.89 256.26 153.63 235.21L160.5 223.34C161.27 220.97 163.05 217.73 164.15 215.18C173.26 194.18 179.95 170.41 177.9 147.04C176.67 133.04 173.22 120.57 167.16 110.36C147.36 76.86 105.64 64.46 69.73 80.36C50.12 88.99 37.73 103.09 27.48 120.71C26 123.07 25 125.9 23.68 128C25.25 127.73 29.88 124.83 32.02 123.82C41.312 119.211 51.2262 115.98 61.45 114.23C89.55 109.62 119.15 118.68 133.54 142.88C140.29 154.26 142.21 170.57 140.54 186.1C137.54 213.77 123.7 242.63 110.14 258.98C106.288 263.727 102.097 268.189 97.6 272.33C93.0746 276.375 88.2213 280.038 83.09 283.28C73.42 289.22 53.93 296.63 43.09 293.67L43 293.74Z" fill="#069139"/>
<path fill-rule="evenodd" clip-rule="evenodd" d="M24.45 291.58C27.61 292.13 39.84 296.04 42.97 293.74C40.6413 293.146 38.4925 291.993 36.7099 290.381C34.9273 288.77 33.5646 286.747 32.74 284.49C27.06 271.26 31.87 247.06 35.09 233.97C37.67 223.5 40.49 213.77 43.75 203.68L53.65 174.79L14.65 174.88C12.26 178.6 7.03999 199.05 5.64999 204.94C-1.00001 232 -8.07001 278.78 24.45 291.58Z" fill="#05559C"/>
<path fill-rule="evenodd" clip-rule="evenodd" d="M13.43 149.05L16.32 152.2C18.4305 150.05 20.8547 148.233 23.51 146.81C27.4756 144.788 31.9296 143.921 36.364 144.308C40.7985 144.696 45.0349 146.321 48.59 149C50.18 150.15 50.68 151.1 52.21 152L55.21 149C53.72 146.76 49.88 144 46.76 142.47C42.9169 140.6 38.6989 139.628 34.425 139.628C30.1511 139.628 25.9331 140.6 22.09 142.47C19.33 143.73 14.87 146.92 13.55 149.04L13.43 149.05Z" fill="#05559C"/>
<path fill-rule="evenodd" clip-rule="evenodd" d="M18.52 154.52L21.52 157.85C24.52 156.25 30.75 149.05 41.34 153.95C43.3884 154.797 45.2028 156.124 46.63 157.82L50.06 154C45.84 151 42.28 147.35 34.14 147.41C31.1783 147.414 28.2522 148.056 25.5604 149.291C22.8687 150.527 20.4743 152.327 18.54 154.57L18.52 154.52Z" fill="#05559C"/>
<path fill-rule="evenodd" clip-rule="evenodd" d="M24.12 160.18L27.31 162.71C27.65 162.48 27.85 162.3 28.13 162.11C29.8453 160.819 31.9144 160.082 34.06 160C38.51 159.9 39.42 161.82 42.24 163.23L44.39 160.23C39.82 154.56 28.51 154.07 24.09 160.23L24.12 160.18Z" fill="#05559C"/>
<path fill-rule="evenodd" clip-rule="evenodd" d="M29.08 165.31L34.76 171L39.45 165.57C35.77 162.1 33.04 162.4 29.06 165.32L29.08 165.31Z" fill="#05559C"/>
<path fill-rule="evenodd" clip-rule="evenodd" d="M263.75 156C284.3 154 277.59 176.24 268.54 181.23C264.33 183.52 259.98 182.87 254.7 182.9L263.75 156.05V156ZM244.8 189.58C251.24 189.78 265.08 190.46 270.11 188.32C284.77 182.14 289 160.9 281.66 153C276.85 147.81 265.19 149.23 258.13 149.14L244.77 189.63L244.8 189.58Z" fill="#4D4E4B"/>
<path fill-rule="evenodd" clip-rule="evenodd" d="M304.3 192.61C309.45 191.05 315.66 196.53 308.44 197.95C301.7 199.27 296.42 195 304.3 192.61ZM312.49 168.41C318.57 166.41 316.28 175.99 312.99 177.41C309.7 178.83 308.08 177.1 308.73 173.67C309.27 170.86 310.22 169.15 312.49 168.41ZM304.64 180.77C302.07 181.44 300.34 182.25 299.46 184.33C298.891 185.405 298.752 186.656 299.071 187.83C299.39 189.004 300.144 190.012 301.18 190.65C294.42 193.19 292.28 197.86 295.37 200.96C300.26 205.9 322.07 203.74 318.37 190.96C316.66 184.96 307.67 187.37 306.11 184.33C307.6 180.89 311.01 185.07 318.19 180.33C321.44 178.19 322.94 174.23 322.94 168.66H326.79L328.43 162.88C319.29 161.71 305.99 161.56 302.71 171.41C302.1 173.167 301.962 175.053 302.31 176.88C302.42 177.604 302.705 178.291 303.14 178.88L304.63 180.88L304.64 180.77Z" fill="#4D4E4B"/>
<path fill-rule="evenodd" clip-rule="evenodd" d="M477.14 183.34C466.05 185.76 468.03 168.74 481.92 169.34C481.27 172 478.34 181.66 477.14 183.34ZM484.35 162.34C474.19 163 466.06 164.45 463.06 176.29C459.53 190.29 471.82 191.13 482.6 189.29L495.84 149.13H488.7L484.35 162.36V162.34Z" fill="#4D4E4B"/>
<path fill-rule="evenodd" clip-rule="evenodd" d="M379.24 169C378.36 172.49 376.98 176 375.87 179.55C375.04 182.18 374.96 182.32 372.68 183.32C364.43 186.94 366.34 177.49 369.59 173.27C371.77 170.44 373.93 168.58 379.24 169ZM372.77 187.59C372.879 187.807 372.93 188.048 372.92 188.29C372.92 188.57 372.83 189.12 372.81 189.7H379.53L388.44 163.08C382.17 162.16 377.44 161.6 371.67 163.81C354.86 170.2 355.2 198.99 372.72 187.62L372.77 187.59Z" fill="#4D4E4B"/>
<path fill-rule="evenodd" clip-rule="evenodd" d="M524.9 169C524.19 172.32 522.59 176.22 521.55 179.57C519.95 184.77 514.55 184.66 513.36 183.37C510.93 180.65 513.94 168.25 524.9 169ZM518.43 187.6L518.51 189.71H525.17L534.07 163.24C522.36 159.92 512.01 164.72 507.83 171.95C501.89 182.24 505.76 196.19 518.39 187.63L518.43 187.6Z" fill="#4D4E4B"/>
<path fill-rule="evenodd" clip-rule="evenodd" d="M430.81 189.6H437.87L442.46 176C442.65 175.42 442.8 174.94 442.93 174.51C443.6 172.26 443.39 172.16 445.73 170.45C452.04 165.88 452.97 168.7 451.56 173.45L446.61 189.77H453.27L459.13 172.53C459.298 172.013 459.432 171.485 459.53 170.95C460.35 167.16 459.95 163.19 456.3 162.47C452.13 161.65 448.75 163.95 446.05 165.47L446.74 162.88L439.74 162.74L430.84 189.69L430.81 189.6Z" fill="#4D4E4B"/>
<path fill-rule="evenodd" clip-rule="evenodd" d="M348.12 162.63H343.26L341.09 168.56H345.81C345.01 172.88 332.1 196.01 353.75 188.46L355.08 181.53C353.76 182.139 352.369 182.582 350.94 182.85C346.2 182.45 352.09 171.25 352.99 168.68L358.47 168.57L360.39 162.64H355.32L357.26 157.08L350.05 156.93L348.12 162.58V162.63Z" fill="#4D4E4B"/>
<path fill-rule="evenodd" clip-rule="evenodd" d="M415.59 189.52L423.09 189.66L436.67 149.14L429 149.12L415.59 189.52Z" fill="#4D4E4B"/>
<path fill-rule="evenodd" clip-rule="evenodd" d="M386.37 189.54L393.39 189.67L406.89 149.12H399.74L386.37 189.54Z" fill="#4D4E4B"/>
<path fill-rule="evenodd" clip-rule="evenodd" d="M284.09 189.88H291.26L299.85 162.58H292.68L284.09 189.88ZM299.79 151.48C301.79 151.48 302.93 153.35 302.41 155.65C302.203 156.726 301.661 157.708 300.862 158.458C300.063 159.207 299.047 159.683 297.96 159.82C295.96 159.82 294.8 157.95 295.32 155.65C295.534 154.564 296.089 153.574 296.903 152.824C297.718 152.074 298.75 151.604 299.85 151.48H299.79Z" fill="#4D4E4B"/>
<path fill-rule="evenodd" clip-rule="evenodd" d="M323.55 189.88H330.72L339.31 162.58H332.15L323.55 189.88ZM339.25 151.48C341.25 151.48 342.41 153.35 341.88 155.65C341.673 156.726 341.131 157.708 340.332 158.458C339.533 159.207 338.517 159.683 337.43 159.82C335.43 159.82 334.27 157.95 334.79 155.65C335.001 154.576 335.544 153.596 336.343 152.848C337.141 152.099 338.155 151.621 339.24 151.48H339.25Z" fill="#4D4E4B"/>
<path fill-rule="evenodd" clip-rule="evenodd" d="M488.63 189.88H495.79L504.38 162.58H497.22L488.63 189.88ZM504.32 151.48C506.32 151.48 507.47 153.35 506.95 155.65C506.737 156.737 506.183 157.727 505.369 158.478C504.554 159.228 503.521 159.698 502.42 159.82C500.42 159.82 499.28 157.95 499.8 155.65C500.014 154.565 500.567 153.577 501.379 152.827C502.192 152.077 503.222 151.606 504.32 151.48Z" fill="#4D4E4B"/>
<path fill-rule="evenodd" clip-rule="evenodd" d="M531.09 193.87H323.3V196.59H531.09V193.87Z" fill="#4D4E4B"/>
<path fill-rule="evenodd" clip-rule="evenodd" d="M285.8 193.87H243.38V196.59H285.8V193.87Z" fill="#4D4E4B"/>
</g>
<defs>
<clipPath id="clip0_2_55">
<rect width="534.17" height="300" fill="white"/>
</clipPath>
</defs>
</svg>
