<svg width="40" height="40" viewBox="0 0 40 40" fill="none" xmlns="http://www.w3.org/2000/svg">
<path d="M28.5759 0.400391V3.46439H33.9239L26.7999 10.5044C26.1479 9.87239 25.6399 9.54039 25.6399 9.54039C24.0439 8.41639 22.0959 7.74839 19.9959 7.74839C17.3519 7.74839 14.9519 8.79639 13.1879 10.4964L11.8599 9.18439L14.6039 6.44039L12.1199 3.95239L9.3599 6.71239L6.0719 3.46439H11.4199V0.400391H0.399902V11.4244H3.4639V5.59239L6.9919 9.08039L4.2599 11.8124L6.7519 14.3044L9.4959 11.5604L11.1959 13.2404C10.5519 14.5484 10.1919 16.0164 10.1919 17.5724C10.1919 22.3684 13.6479 26.3564 18.1639 27.2204V31.1844H12.6519V34.7044H18.1639V39.6004H21.8399V34.7004H27.3519V31.1804H21.8359V27.2164C26.2759 26.3524 29.8159 22.3644 29.8159 17.5684C29.8159 16.0204 29.4479 14.5244 28.8119 13.2324L36.5359 5.59239V11.4244H39.5999V0.400391H28.5759ZM19.9959 23.7044C16.6159 23.7044 13.8639 20.9524 13.8639 17.5644C13.8639 14.1804 16.6159 11.4244 19.9959 11.4244C23.3759 11.4244 26.1279 14.1764 26.1279 17.5644C26.1239 20.9524 23.3759 23.7044 19.9959 23.7044Z" fill="url(#paint0_linear_1368_4240)"/>
<defs>
<linearGradient id="paint0_linear_1368_4240" x1="14" y1="24" x2="28.5" y2="24" gradientUnits="userSpaceOnUse">
<stop stop-color="#2F2B45"/>
<stop offset="1" stop-color="#16A34A"/>
</linearGradient>
</defs>
</svg>
