<svg width="29" height="29" viewBox="0 0 29 29" fill="none" xmlns="http://www.w3.org/2000/svg">
<g clip-path="url(#clip0)">
<path d="M8.19121 11.1742V10.293H15.9023V11.1742H8.19121ZM10.2399 4.34444H13.8011C14.0831 5.80689 14.2803 7.30834 15.4392 9.19138H8.60166C9.76008 7.30966 9.95704 5.81108 10.2399 4.34444ZM14.7079 3.24286H9.33289L8.90723 5.42354C8.43378 7.84415 7.27315 9.16318 7.08963 9.53177V12.2758H9.29279V14.479H10.3944V12.2758H17.0038V9.53177C15.3334 7.09376 15.3219 6.41562 14.7079 3.24286Z" fill="#976A4C"/>
<path d="M16.1228 19.7091C16.9955 18.6635 17.1195 17.7005 17.3528 16.6822H19.0937C19.2665 17.4855 19.3894 18.3978 20.3088 19.7091V20.2073H16.1228V19.7091ZM17.665 24.1729H15.2415V25.2745H20.5291V24.1729H18.7666V21.3088H21.4104V19.3505C20.3548 17.9191 20.3619 17.363 20.001 15.5806H16.4458C16.1988 16.7992 16.0049 18.3253 15.0212 19.3505V21.3088H17.665V24.1729Z" fill="#976A4C"/>
<path d="M9.76229 15.0528C8.80259 15.0528 8.80193 16.506 9.76229 16.506C10.7222 16.506 10.7229 15.0528 9.76229 15.0528Z" fill="#976A4C"/>
<path d="M13.9196 24.1729H10.1743V23.8486C10.1743 23.3078 10.5147 22.8511 11.0558 22.8511H12.9857C13.5266 22.8511 13.9196 23.3078 13.9196 23.8486V24.1729ZM12.9857 21.7495H12.5977V13.1572H11.4962V21.7495H11.0558C9.90725 21.7495 9.07269 22.7001 9.07269 23.8486V25.2745H15.0212V23.8486C15.0212 22.7001 14.134 21.7495 12.9857 21.7495Z" fill="#976A4C"/>
</g>
<defs>
<clipPath id="clip0">
<rect width="28.5" height="28.5" fill="white"/>
</clipPath>
</defs>
</svg>
